<svg width="108" height="19" viewBox="0 0 108 19" fill="none" xmlns="http://www.w3.org/2000/svg">
<g clip-path="url(#clip0_9513_8496)">
<path d="M34.7806 13.853C34.9779 13.5215 35.1115 13.3161 35.2269 13.1002C37.1638 9.51371 39.0991 5.92573 41.036 2.33776C41.2167 2.00314 41.3836 1.66093 41.5901 1.34304C42.0318 0.666209 42.7164 0.389392 43.4116 0.57343C44.1417 0.766593 44.5895 1.30045 44.6457 2.12026C44.6836 2.67541 44.6624 3.23513 44.6624 3.79181C44.6624 6.35161 44.6639 8.91141 44.6594 11.4727C44.6578 12.2074 44.3998 12.8173 43.7061 13.1549C43.1019 13.4485 42.4492 13.4226 42.0212 12.9344C41.6857 12.5511 41.4383 11.9807 41.3958 11.4742C41.3032 10.37 41.3669 9.25362 41.206 8.07943C41.0117 8.40948 40.8008 8.73041 40.6262 9.06959C39.1705 11.8788 37.7451 14.7063 36.2576 17.4988C35.535 18.854 34.0201 18.8251 33.246 17.4988C33.1443 17.3239 33.0638 17.1368 32.9727 16.9558C31.6339 14.285 30.2951 11.6142 28.9547 8.94335C28.8363 8.70759 28.7012 8.47945 28.4083 8.28172C28.4083 8.54637 28.4083 8.81254 28.4083 9.07719C28.4083 11.5366 28.4083 13.9945 28.4083 16.4539C28.4083 17.1384 28.2641 17.7665 27.6508 18.1802C26.693 18.8266 25.3921 18.3065 25.1553 17.1718C25.0946 16.8783 25.0976 16.5665 25.0976 16.2638C25.0946 11.7526 25.0946 7.23986 25.0976 2.72865C25.0976 2.45031 25.0293 2.11722 25.1553 1.9058C25.421 1.45407 25.7215 0.953673 26.142 0.676856C26.6581 0.336158 27.2865 0.476087 27.7495 0.91717C28.0182 1.17269 28.2368 1.49818 28.4113 1.82823C30.412 5.61089 32.3989 9.40116 34.392 13.1884C34.4846 13.3648 34.5939 13.5321 34.7836 13.8546L34.7806 13.853Z" fill="#AA50F2"/>
<path d="M108 8.95569C108.011 14.9316 103.48 19.2344 97.9786 18.9911C92.6673 18.7553 88.5142 13.9414 89.044 8.57849C89.299 5.99436 90.4481 3.84674 92.4533 2.1904C93.5355 1.29607 94.8729 1.61547 95.2857 2.83834C95.5696 3.67943 95.1081 4.24676 94.5996 4.86427C93.9181 5.69016 93.1591 6.54495 92.7993 7.52141C91.9356 9.86828 92.4958 12.0585 94.2535 13.8046C96.0417 15.5826 98.2624 16.0465 100.62 15.1597C102.91 14.2989 104.229 12.568 104.518 10.0995C104.764 7.99596 104.015 6.28486 102.466 4.89013C101.667 4.17223 101.43 3.47562 101.729 2.76381C102.226 1.58201 103.486 1.30367 104.542 2.18432C106.811 4.07489 107.961 6.51453 108 8.95721V8.95569Z" fill="#D358F7"/>
<path d="M49.5334 9.43026C49.5334 7.12446 49.5258 4.81715 49.5365 2.51135C49.5425 1.10749 50.1786 0.47933 51.5811 0.467162C52.5678 0.458036 53.5545 0.450431 54.5396 0.471725C55.6796 0.497581 56.4006 1.15464 56.4143 2.13719C56.4279 3.08172 55.76 3.73421 54.6595 3.85133C54.5836 3.85893 54.5077 3.8635 54.4318 3.86806C52.8835 3.95019 52.8699 3.95019 52.8896 5.54417C52.8987 6.29249 52.7059 7.2796 53.0976 7.7146C53.4391 8.09484 54.4698 7.87126 55.1969 7.88039C56.3596 7.89712 57.5239 7.87278 58.6866 7.88951C59.8433 7.90624 60.5628 8.49942 60.584 9.42113C60.6083 10.428 59.8782 11.0744 58.6502 11.0866C56.9805 11.1033 55.3107 11.1155 53.6425 11.079C53.0277 11.0653 52.8456 11.2889 52.8729 11.8729C52.9109 12.708 52.9093 13.546 52.8729 14.381C52.8486 14.9484 53.0551 15.1324 53.6167 15.1263C55.5885 15.102 57.5618 15.1111 59.5351 15.1217C60.3852 15.1263 61.1624 15.3058 61.507 16.2199C61.9441 17.3773 61.1867 18.4694 59.8752 18.512C58.5864 18.5546 57.2962 18.5242 56.0059 18.5242C54.5138 18.5242 53.0217 18.5318 51.5295 18.5211C50.2104 18.512 49.5532 17.8899 49.5395 16.5743C49.5167 14.1924 49.5334 11.8106 49.5334 9.42722H49.5304L49.5334 9.43026Z" fill="#8E4FEE"/>
<path d="M8.65073 9.42263C8.65073 11.6007 8.65073 13.7787 8.65073 15.9567C8.65073 16.159 8.6568 16.3628 8.64769 16.5651C8.60064 17.683 7.94792 18.4283 7.04019 18.404C6.09148 18.3796 5.44636 17.677 5.44028 16.5514C5.42055 13.1323 5.43269 9.71313 5.43118 6.29399C5.43118 5.6856 5.41296 5.07721 5.43421 4.47034C5.45243 3.9456 5.21866 3.74179 4.71015 3.74788C3.7493 3.76157 2.78844 3.75852 1.8291 3.74483C0.781723 3.72962 0.0895416 3.13188 0.00605484 2.19953C-0.0668063 1.39797 0.543406 0.639007 1.55891 0.590336C3.42294 0.499077 5.29608 0.494514 7.16163 0.575126C8.16347 0.619234 8.64162 1.33105 8.64618 2.43223C8.65528 4.76237 8.64921 7.0925 8.64921 9.42263H8.65073Z" fill="#387AE0"/>
<path d="M82.7429 9.46198C82.7429 11.8955 82.7536 14.3276 82.7369 16.7611C82.7308 17.6433 82.2724 18.1954 81.5073 18.3566C80.7787 18.5102 80.0137 18.165 79.7647 17.479C79.6312 17.111 79.6205 16.6851 79.619 16.2851C79.6084 12.5602 79.613 8.83382 79.613 5.10895C79.613 4.88081 79.6039 4.65266 79.6099 4.42451C79.6205 3.94693 79.3974 3.7416 78.9162 3.7492C77.9296 3.76289 76.9429 3.76441 75.9578 3.74312C74.8846 3.7203 74.2288 3.15754 74.1833 2.26169C74.1362 1.305 74.6463 0.62208 75.7255 0.567325C77.5668 0.476066 79.4171 0.483671 81.2599 0.553636C82.2223 0.590139 82.7354 1.25937 82.7399 2.23735C82.7536 4.64505 82.7445 7.05276 82.7429 9.46046V9.46198Z" fill="#387AE0"/>
<path d="M16.6639 11.8561C16.6639 10.2622 16.6564 8.66666 16.667 7.07268C16.6731 6.00344 17.3 5.26425 18.1895 5.23991C19.1154 5.21405 19.8698 5.95933 19.8774 7.01489C19.8987 10.2028 19.8987 13.3923 19.8774 16.5803C19.8698 17.6982 19.1852 18.4252 18.2669 18.4024C17.3182 18.3781 16.6776 17.6571 16.6685 16.562C16.6564 14.9924 16.6655 13.4243 16.6655 11.8546L16.6639 11.8561Z" fill="#EC83E6"/>
<path d="M14.1715 2.1641C14.1715 3.08581 13.4277 3.84326 12.5003 3.86607C11.5531 3.88889 10.7653 3.11015 10.7637 2.15042C10.7622 1.23175 11.5136 0.468218 12.438 0.451487C13.3867 0.433236 14.17 1.20893 14.1715 2.1641Z" fill="#F8C3C9"/>
<path d="M84.9121 2.19625C84.8939 1.235 85.6498 0.457782 86.6077 0.451698C87.5382 0.445614 88.2759 1.17264 88.2971 2.11716C88.3184 3.08755 87.5716 3.86172 86.6092 3.86628C85.6878 3.87085 84.9288 3.12253 84.9121 2.19778V2.19625Z" fill="#F8C3C9"/>
<path d="M61.5388 2.11408C61.551 3.09662 60.8694 3.79931 59.8979 3.8054C58.9932 3.81148 58.251 3.09967 58.2206 2.19773C58.1918 1.31404 58.9902 0.488155 59.8858 0.48055C60.7586 0.471424 61.5267 1.23191 61.5388 2.1156V2.11408Z" fill="#8E4FEE"/>
<path d="M100.398 2.11408C100.41 3.09662 99.7287 3.79931 98.7572 3.8054C97.8526 3.81148 97.1103 3.09967 97.0799 2.19773C97.0511 1.31404 97.8495 0.488155 98.7451 0.48055C99.6179 0.471424 100.386 1.23191 100.398 2.1156V2.11408Z" fill="#D358F7"/>
<path d="M42.976 15.2159C43.8898 15.2098 44.6214 15.9155 44.6487 16.8266C44.6745 17.6692 43.864 18.4814 42.9957 18.4844C42.1563 18.486 41.4019 17.7376 41.3806 16.8813C41.3578 15.9611 42.0652 15.2219 42.9744 15.2159H42.976Z" fill="#AA50F2"/>
<path d="M18.2699 3.27448C17.4275 3.27904 16.7004 2.54441 16.6761 1.66833C16.6549 0.886552 17.4002 0.126066 18.2168 0.095646C19.0653 0.0652266 19.8243 0.793773 19.8425 1.66073C19.8607 2.51551 19.1245 3.27144 18.2699 3.276V3.27448Z" fill="#EC83E6"/>
</g>
<defs>
<clipPath id="clip0_9513_8496">
<rect width="108" height="19" fill="white"/>
</clipPath>
</defs>
</svg>
